<svg width="260" height="56" viewBox="0 0 260 56" fill="none" xmlns="http://www.w3.org/2000/svg">
<path d="M29 0C32.7277 0 35.86 2.54954 36.748 6H18C11.3726 6 6 11.3726 6 18V36.7471C2.54966 35.8589 8.83288e-08 32.7276 0 29V8C0 3.58172 3.58172 1.04692e-07 8 0H29Z" fill="#0057C8"/>
<path d="M60 17C64.4183 17 68 20.5817 68 25V40C68 44.4183 64.4183 48 60 48V18C60 17.6632 59.9852 17.3298 59.958 17H60Z" fill="#CF4B4B"/>
<path d="M48 10C52.4183 10 56 13.5817 56 18V48C56 52.4183 52.4183 56 48 56H18C13.5817 56 10 52.4183 10 48V18C10 13.5817 13.5817 10 18 10H48ZM34 16C32.3431 16 31 17.3431 31 19V35C31 36.6569 32.3431 38 34 38C35.6569 38 37 36.6569 37 35V19C37 17.3431 35.6569 16 34 16ZM47 16C45.3431 16 44 17.3431 44 19V35C44 36.6569 45.3431 38 47 38C48.6569 38 50 36.6569 50 35V19C50 17.3431 48.6569 16 47 16Z" fill="#E5A126"/>
<path d="M99.788 40.432C97.268 40.432 95.096 39.892 93.272 38.812C91.472 37.708 90.08 36.184 89.096 34.24C88.136 32.272 87.656 30.004 87.656 27.436C87.656 24.868 88.136 22.6 89.096 20.632C90.08 18.664 91.472 17.128 93.272 16.024C95.096 14.92 97.268 14.368 99.788 14.368C102.836 14.368 105.332 15.124 107.276 16.636C109.22 18.148 110.432 20.284 110.912 23.044H105.62C105.308 21.7 104.648 20.656 103.64 19.912C102.656 19.144 101.36 18.76 99.752 18.76C98.264 18.76 96.98 19.12 95.9 19.84C94.844 20.536 94.028 21.532 93.452 22.828C92.876 24.1 92.588 25.636 92.588 27.436C92.588 29.212 92.876 30.748 93.452 32.044C94.028 33.34 94.844 34.336 95.9 35.032C96.98 35.728 98.264 36.076 99.752 36.076C101.36 36.076 102.656 35.728 103.64 35.032C104.624 34.312 105.272 33.316 105.584 32.044H110.912C110.432 34.66 109.22 36.712 107.276 38.2C105.332 39.688 102.836 40.432 99.788 40.432ZM121.722 40.432C120.258 40.432 118.998 40.132 117.942 39.532C116.91 38.908 116.118 38.008 115.566 36.832C115.014 35.632 114.738 34.156 114.738 32.404V21.856H119.598V31.9C119.598 33.364 119.898 34.468 120.498 35.212C121.122 35.956 122.07 36.328 123.342 36.328C124.158 36.328 124.878 36.148 125.502 35.788C126.126 35.404 126.618 34.864 126.978 34.168C127.362 33.448 127.554 32.572 127.554 31.54V21.856H132.378V40H128.13L127.734 37.048C127.206 38.08 126.426 38.908 125.394 39.532C124.362 40.132 123.138 40.432 121.722 40.432ZM147.866 40.432C146.93 40.432 146.09 40.312 145.346 40.072C144.626 39.832 143.978 39.508 143.402 39.1C142.85 38.668 142.382 38.188 141.998 37.66L141.458 40H137.138V14.08H141.998V24.376C142.574 23.536 143.33 22.84 144.266 22.288C145.226 21.712 146.414 21.424 147.83 21.424C149.51 21.424 150.998 21.844 152.294 22.684C153.614 23.5 154.646 24.628 155.39 26.068C156.158 27.484 156.542 29.116 156.542 30.964C156.542 32.764 156.158 34.384 155.39 35.824C154.646 37.264 153.626 38.392 152.33 39.208C151.034 40.024 149.546 40.432 147.866 40.432ZM146.714 36.184C147.674 36.184 148.514 35.968 149.234 35.536C149.978 35.08 150.554 34.468 150.962 33.7C151.37 32.908 151.574 31.996 151.574 30.964C151.574 29.932 151.37 29.02 150.962 28.228C150.554 27.412 149.978 26.788 149.234 26.356C148.514 25.9 147.674 25.672 146.714 25.672C145.778 25.672 144.938 25.9 144.194 26.356C143.474 26.788 142.898 27.4 142.466 28.192C142.058 28.984 141.854 29.896 141.854 30.928C141.854 31.96 142.058 32.884 142.466 33.7C142.898 34.492 143.474 35.104 144.194 35.536C144.938 35.968 145.778 36.184 146.714 36.184ZM166.704 40V18.724H159.324V14.8H178.872V18.724H171.528V40H166.704ZM182.316 40V21.856H187.176V40H182.316ZM184.764 19.372C183.9 19.372 183.18 19.12 182.604 18.616C182.052 18.088 181.776 17.428 181.776 16.636C181.776 15.844 182.052 15.196 182.604 14.692C183.18 14.164 183.9 13.9 184.764 13.9C185.652 13.9 186.372 14.164 186.924 14.692C187.5 15.196 187.788 15.844 187.788 16.636C187.788 17.428 187.5 18.088 186.924 18.616C186.372 19.12 185.652 19.372 184.764 19.372ZM192.087 40V21.856H196.371L196.767 24.268C197.343 23.404 198.099 22.72 199.035 22.216C199.995 21.688 201.087 21.424 202.311 21.424C203.223 21.424 204.039 21.544 204.759 21.784C205.479 22.024 206.115 22.372 206.667 22.828C207.243 23.284 207.711 23.86 208.071 24.556C208.743 23.572 209.619 22.804 210.699 22.252C211.779 21.7 212.955 21.424 214.227 21.424C215.811 21.424 217.131 21.748 218.187 22.396C219.243 23.02 220.035 23.932 220.563 25.132C221.115 26.332 221.391 27.808 221.391 29.56V40H216.567V29.992C216.567 28.552 216.279 27.448 215.703 26.68C215.151 25.912 214.287 25.528 213.111 25.528C212.343 25.528 211.659 25.72 211.059 26.104C210.459 26.488 209.991 27.04 209.655 27.76C209.343 28.48 209.187 29.344 209.187 30.352V40H204.327V29.992C204.327 28.552 204.039 27.448 203.463 26.68C202.887 25.912 201.999 25.528 200.799 25.528C200.055 25.528 199.383 25.72 198.783 26.104C198.207 26.488 197.751 27.04 197.415 27.76C197.103 28.48 196.947 29.344 196.947 30.352V40H192.087ZM234.69 40.432C232.866 40.432 231.246 40.048 229.83 39.28C228.438 38.488 227.346 37.396 226.554 36.004C225.786 34.588 225.402 32.956 225.402 31.108C225.402 29.212 225.786 27.544 226.554 26.104C227.346 24.64 228.438 23.5 229.83 22.684C231.222 21.844 232.842 21.424 234.69 21.424C236.49 21.424 238.062 21.82 239.406 22.612C240.75 23.404 241.794 24.472 242.538 25.816C243.282 27.16 243.654 28.684 243.654 30.388C243.654 30.628 243.654 30.904 243.654 31.216C243.654 31.504 243.63 31.804 243.582 32.116H228.858V29.164H238.758C238.686 27.988 238.266 27.064 237.498 26.392C236.754 25.72 235.818 25.384 234.69 25.384C233.874 25.384 233.118 25.576 232.422 25.96C231.726 26.32 231.174 26.884 230.766 27.652C230.382 28.42 230.19 29.392 230.19 30.568V31.612C230.19 32.596 230.37 33.46 230.73 34.204C231.114 34.924 231.642 35.488 232.314 35.896C232.986 36.28 233.766 36.472 234.654 36.472C235.542 36.472 236.274 36.28 236.85 35.896C237.45 35.512 237.894 35.02 238.182 34.42H243.15C242.814 35.548 242.25 36.568 241.458 37.48C240.666 38.392 239.694 39.112 238.542 39.64C237.39 40.168 236.106 40.432 234.69 40.432ZM247.634 40V21.856H251.954L252.422 25.204C252.854 24.412 253.394 23.74 254.042 23.188C254.714 22.636 255.47 22.204 256.31 21.892C257.174 21.58 258.122 21.424 259.154 21.424V26.572H257.498C256.778 26.572 256.106 26.656 255.482 26.824C254.882 26.992 254.354 27.268 253.898 27.652C253.442 28.012 253.094 28.516 252.854 29.164C252.614 29.812 252.494 30.628 252.494 31.612V40H247.634Z" fill="#E8E6E1"/>
</svg>
